<?xml version="1.0" encoding="UTF-8"?>
<svg id="Layer_1" data-name="Layer 1" xmlns="http://www.w3.org/2000/svg" viewBox="0 0 198.05 64.3">
  <defs>
    <style>
      .cls-1 {
        fill: #231f20;
      }
    </style>
  </defs>
  <g>
    <path class="cls-1" d="m24.92,23.33v14.67h-6.98v-3.2c-1.39,2.34-4.06,3.58-7.84,3.58-6.02,0-9.61-3.35-9.61-7.79s3.2-7.69,11.04-7.69h5.93c0-3.2-1.91-5.07-5.93-5.07-2.72,0-5.54.91-7.41,2.39l-2.68-5.21c2.82-2.01,6.98-3.11,11.09-3.11,7.84,0,12.38,3.63,12.38,11.42Zm-7.46,6.55v-2.63h-5.11c-3.49,0-4.59,1.29-4.59,3.01,0,1.86,1.58,3.11,4.21,3.11,2.49,0,4.64-1.15,5.5-3.49Z"/>
    <path class="cls-1" d="m53.54,12.29l-10.85,25.71h-7.69l-10.8-25.71h7.69l7.12,17.49,7.36-17.49h7.17Z"/>
    <path class="cls-1" d="m52.54,4.55c0-2.34,1.86-4.16,4.64-4.16s4.64,1.72,4.64,4.01c0,2.48-1.86,4.3-4.64,4.3s-4.64-1.82-4.64-4.16Zm.91,7.74h7.46v25.71h-7.46V12.29Z"/>
    <path class="cls-1" d="m90.86,2.54v35.46h-7.12v-2.96c-1.86,2.25-4.59,3.35-8.03,3.35-7.26,0-12.86-5.16-12.86-13.24s5.59-13.24,12.86-13.24c3.15,0,5.83,1,7.69,3.11V2.54h7.46Zm-7.31,22.6c0-4.44-2.87-7.12-6.55-7.12s-6.6,2.68-6.6,7.12,2.87,7.12,6.6,7.12,6.55-2.68,6.55-7.12Z"/>
    <path class="cls-1" d="m117.86,23.43v14.58h-.96v-14.58c0-6.12-3.3-9.37-8.89-9.37-6.5,0-10.42,4.25-10.42,10.51v13.43h-.96V13.3h.96v6.59c1.48-4.11,5.11-6.74,10.37-6.74,6.07,0,9.89,3.58,9.89,10.27Z"/>
    <path class="cls-1" d="m141.9,13.3v24.71h-.96v-6.55c-1.43,4.11-4.92,6.69-9.94,6.69-6.26,0-10.13-3.58-10.13-10.27v-14.58h.96v14.58c0,6.12,3.35,9.37,9.13,9.37,6.21,0,9.99-4.25,9.99-10.51v-13.43h.96Z"/>
    <path class="cls-1" d="m185.81,23.43v14.58h-.96v-14.58c0-6.12-3.2-9.37-8.6-9.37-6.31,0-10.13,4.25-10.13,10.51v13.43h-.96v-14.58c0-6.12-3.2-9.37-8.6-9.37-6.31,0-10.13,4.25-10.13,10.51v13.43h-.96V13.3h.96v6.55c1.43-4.11,5.02-6.69,10.08-6.69s8.41,2.53,9.37,7.36c1.24-4.4,4.92-7.36,10.32-7.36,5.93,0,9.61,3.58,9.61,10.27Z"/>
  </g>
  <g>
    <path class="cls-1" d="m150.8,49.15c0,5.38-3.73,8.83-8.54,8.83-2.13,0-3.89-.67-5.16-2.07v8h-4.97v-23.32h4.75v1.98c1.24-1.5,3.09-2.23,5.38-2.23,4.81,0,8.54,3.44,8.54,8.83Zm-5.03,0c0-2.96-1.88-4.75-4.37-4.75s-4.37,1.78-4.37,4.75,1.88,4.75,4.37,4.75,4.37-1.78,4.37-4.75Z"/>
    <path class="cls-1" d="m152.77,35.42c0-1.56,1.24-2.77,3.09-2.77s3.09,1.15,3.09,2.68c0,1.66-1.24,2.87-3.09,2.87s-3.09-1.21-3.09-2.77Zm.61,5.16h4.97v17.14h-4.97v-17.14Z"/>
    <path class="cls-1" d="m160.96,49.15c0-5.16,3.98-8.83,9.56-8.83,3.6,0,6.44,1.56,7.68,4.37l-3.86,2.07c-.92-1.62-2.29-2.36-3.85-2.36-2.52,0-4.49,1.75-4.49,4.75s1.98,4.75,4.49,4.75c1.56,0,2.93-.7,3.85-2.36l3.86,2.1c-1.24,2.74-4.08,4.33-7.68,4.33-5.58,0-9.56-3.66-9.56-8.83Z"/>
    <path class="cls-1" d="m178.83,49.15c0-5.16,3.98-8.83,9.43-8.83s9.4,3.66,9.4,8.83-3.95,8.83-9.4,8.83-9.43-3.66-9.43-8.83Zm13.8,0c0-2.96-1.88-4.75-4.37-4.75s-4.4,1.78-4.4,4.75,1.91,4.75,4.4,4.75,4.37-1.78,4.37-4.75Z"/>
  </g>
</svg>